<svg width="312" height="347" viewBox="0 0 312 347" fill="none" xmlns="http://www.w3.org/2000/svg">
<g id="cannon 1">
<path id="Vector" d="M312 0H0V347H312V0Z" fill="none"/>
<g id="body">
<g id="Group">
<g id="Group_2">
<path id="Vector_2" d="M173.948 41.5517C168.499 44.1138 145.535 56.7089 140.294 59.6769M171.846 42.8708C166.579 45.3061 146.34 55.6308 141.501 58.1675L171.846 42.8708Z" stroke="black" stroke-linecap="round"/>
</g>
</g>
<g id="Group_3">
<g id="Group_4">
<path id="Vector_3" d="M187.743 43.309C178.597 47.3805 144.684 64.5164 135.382 69.0445M189.079 40.7849C179.557 45.3892 141.661 66.3936 132.32 71.1247L189.079 40.7849Z" stroke="black" stroke-linecap="round"/>
</g>
</g>
<g id="Group_5">
<g id="Group_6">
<path id="Vector_4" d="M207.753 48.0931C206.793 48.3341 217.587 43.0196 205.34 48.9556C193.106 54.8917 146.375 78.0904 134.297 83.6713M209.505 45.3027C208.778 45.3661 219.157 40.9902 206.08 47.1672C193.002 53.3569 143.326 76.6572 131.04 82.4283L209.505 45.3027Z" stroke="black" stroke-linecap="round"/>
</g>
</g>
<g id="Group_7">
<g id="Group_8">
<path id="Vector_5" d="M229.313 54.201C210.813 63.0036 138.77 97.6559 121.23 106.636M231.168 51.2964C212.94 60.0482 140.846 96.2353 122.501 105.431L231.168 51.2964Z" stroke="black" stroke-linecap="round"/>
</g>
</g>
<g id="Group_9">
<g id="Group_10">
<path id="Vector_6" d="M248.698 61.0618C226.124 72.5026 136.632 115.869 113.383 126.193M246.648 58.3855C223.607 68.9511 133.051 113.218 110.386 124.418L246.648 58.3855Z" stroke="black" stroke-linecap="round"/>
</g>
</g>
<g id="Group_11">
<g id="Group_12">
<path id="Vector_7" d="M255.299 70.1215C229.417 82.577 127.47 129.812 102.185 141.861M257.141 67.4959C231.428 80.2305 128.651 131.575 103.106 143.878L257.141 67.4959Z" stroke="black" stroke-linecap="round"/>
</g>
</g>
<g id="Group_13">
<g id="Group_14">
<path id="Vector_8" d="M257.061 85.5497C230.426 98.0179 126.91 146.749 100.587 159.687M259.098 82.569C232.671 95.5573 127.909 148.791 101.443 161.932L259.098 82.569Z" stroke="black" stroke-linecap="round"/>
</g>
</g>
<g id="Group_15">
<g id="Group_16">
<path id="Vector_9" d="M263.564 102.554C236.475 114.921 127.004 163.589 99.9026 176.425M261.268 99.6876C234.426 112.6 127.964 165.796 101.408 178.848L261.268 99.6876Z" stroke="black" stroke-linecap="round"/>
</g>
</g>
<g id="Group_17">
<g id="Group_18">
<path id="Vector_10" d="M268.59 112.079C241.254 124.471 132.367 176.5 104.513 189.501M270.523 113.727C243.162 126.627 132.977 178.859 105.032 192L270.523 113.727Z" stroke="black" stroke-linecap="round"/>
</g>
</g>
<g id="Group_19">
<g id="Group_20">
<path id="Vector_11" d="M271.227 129.676C243.736 142.41 137.288 192.055 110.212 204.942M273.264 130.234C245.371 143.323 134.615 194.363 107.293 206.882L273.264 130.234Z" stroke="black" stroke-linecap="round"/>
</g>
</g>
<g id="Group_21">
<g id="Group_22">
<path id="Vector_12" d="M278.079 146.897C251.782 159.86 146.333 208.135 120.385 220.539M279.182 144.043C253.066 156.194 147.967 206.587 121.333 219.233L279.182 144.043Z" stroke="black" stroke-linecap="round"/>
</g>
</g>
<g id="Group_23">
<g id="Group_24">
<path id="Vector_13" d="M278.518 158.189C253.103 170.289 153.531 221.19 128.245 233.239M280.283 159.851C254.426 171.723 150.884 219.338 125.404 231.527L280.283 159.851Z" stroke="black" stroke-linecap="round"/>
</g>
</g>
<g id="Group_25">
<g id="Group_26">
<path id="Vector_14" d="M282.304 172.127C258.095 184.963 161.909 236.599 137.662 249.22M283.576 173.751C258.926 185.763 159.224 235.039 134.833 247.761L283.576 173.751Z" stroke="black" stroke-linecap="round"/>
</g>
</g>
<g id="Group_27">
<g id="Group_28">
<path id="Vector_15" d="M285.059 187.228C261.72 199.126 169.257 247.223 145.879 259.31M282.867 187.824C259.787 200.204 169.607 249.557 146.774 261.391L282.867 187.824Z" stroke="black" stroke-linecap="round"/>
</g>
</g>
<g id="Group_29">
<g id="Group_30">
<path id="Vector_16" d="M279.846 203.523C259.244 215.37 177.031 260.474 157.103 271.585M281.753 204.069C261.268 214.99 178.99 258.774 158.206 269.568L281.753 204.069Z" stroke="black" stroke-linecap="round"/>
</g>
</g>
<g id="Group_31">
<g id="Group_32">
<path id="Vector_17" d="M272.462 229.081C257.062 237.009 194.244 268.541 178.39 276.811M270.14 226.519C254.87 234.954 194.555 270.71 179.273 279.221L270.14 226.519Z" stroke="black" stroke-linecap="round"/>
</g>
</g>
<g id="Group_33">
<path id="Vector_18" d="M28.5869 171.605C26.6927 170.323 20.1411 165.339 18.9734 164.705M29.8713 168.966C28.2885 168.269 21.633 167.622 20.2838 167.191L29.8713 168.966Z" stroke="#E67700" stroke-linecap="round"/>
</g>
<g id="Group_34">
<g id="Group_35">
<path id="Vector_19" d="M248.795 30.1772C231.76 31.0271 163.61 31.2807 147.043 31.4076M250.416 27.3107C233.551 27.8181 165.141 29.3274 148.353 29.7079L250.416 27.3107Z" stroke="black" stroke-linecap="round"/>
</g>
</g>
<g id="Group_36">
<g id="Group_37">
<path id="Vector_20" d="M249.553 24.7744C257.22 54.721 308.297 164.145 297.555 208.716C286.813 253.287 219.493 296.107 185.113 292.213C150.733 288.332 97.1911 229.302 91.2622 185.377C85.3462 141.441 139.978 54.6196 149.604 28.6303M250.721 26.3092C258.038 56.1036 305.482 162.014 294.688 206.712C283.894 251.397 219.83 298.213 185.956 294.471C152.082 290.717 97.9176 228.655 91.4827 184.223C85.0478 139.792 138.006 54.1376 147.36 27.8439L250.721 26.3092Z" stroke="black" stroke-linecap="round"/>
</g>
</g>
<g id="Group_38">
<path id="Vector_21" d="M258.382 29.6168C259.057 29.008 260.004 27.9045 261.782 25.7863M133.745 22.8436C134.835 21.4865 138.014 20.1293 140.556 15.1953L133.745 22.8436ZM133.745 22.8436C136.82 20.4717 138.935 16.8568 140.556 15.1953L133.745 22.8436ZM135.964 28.0947C141.153 23.5032 142.931 20.7381 147.874 14.6879L135.964 28.0947ZM135.964 28.0947C138.688 24.3023 142.749 21.0298 147.874 14.6879L135.964 28.0947ZM140.725 30.4666C147.303 23.0973 151.727 18.8609 154.347 15.1445L140.725 30.4666ZM140.725 30.4666C145.811 24.9238 151.675 19.3682 154.347 15.1445L140.725 30.4666ZM147.199 30.9232C151.558 26.1541 155.684 21.1947 160.821 15.6011L147.199 30.9232ZM147.199 30.9232C151.454 25.4438 157.695 20.1293 160.821 15.6011L147.199 30.9232ZM154.516 30.4159C158.992 25.5453 161.625 22.349 168.138 15.1065L154.516 30.4159ZM154.516 30.4159C159.251 23.9725 164.013 18.6833 168.138 15.1065L154.516 30.4159ZM160.99 30.8725C165.375 27.9045 170.811 23.6934 174.612 15.5631L160.99 30.8725ZM160.99 30.8725C166.218 25.4565 170.422 20.4717 174.612 15.5631L160.99 30.8725ZM167.464 31.3291C171.382 25.596 175.261 21.7148 181.929 15.0557L167.464 31.3291ZM167.464 31.3291C172.913 26.0653 178.089 19.8883 181.929 15.0557L167.464 31.3291ZM174.781 30.8345C179.308 24.3403 182.396 21.1947 188.403 15.5124L174.781 30.8345ZM174.781 30.8345C181.073 24.074 186.003 19.3302 188.403 15.5124L174.781 30.8345ZM181.255 31.2911C186.262 26.6995 186.716 23.0085 195.72 15.0177L181.255 31.2911ZM181.255 31.2911C184.044 27.0293 188.299 22.6661 195.72 15.0177L181.255 31.2911ZM188.572 30.7837C193.826 24.3023 200.404 20.383 202.194 15.4743L188.572 30.7837ZM188.572 30.7837C191.27 27.5113 195.162 24.3657 202.194 15.4743L188.572 30.7837ZM195.045 31.2403C198.509 27.0166 202.531 20.0532 209.511 14.967L195.045 31.2403ZM195.045 31.2403C197.303 28.6528 202.44 23.4905 209.511 14.967L195.045 31.2403ZM202.363 30.7457C204.451 27.7142 210.484 22.2094 215.985 15.4236L202.363 30.7457ZM202.363 30.7457C204.023 28.006 208.149 24.6067 215.985 15.4236L202.363 30.7457ZM208.836 31.2023C213.818 27.3844 216.322 20.4591 223.302 14.9289L208.836 31.2023ZM208.836 31.2023C214.272 27.1688 218.45 20.5478 223.302 14.9289L208.836 31.2023ZM216.153 30.6949C217.814 25.5833 221.563 21.7401 229.776 15.3855L216.153 30.6949ZM216.153 30.6949C219.449 26.839 221.369 23.6173 229.776 15.3855L216.153 30.6949ZM222.627 31.1515C224.145 29.0841 228.439 24.8223 237.093 14.8782L222.627 31.1515ZM222.627 31.1515C226.805 26.7629 229.166 24.7082 237.093 14.8782L222.627 31.1515ZM229.944 30.6569C236.392 26.6488 241.218 21.8162 243.567 15.3348L229.944 30.6569ZM229.944 30.6569C235.199 26.0907 238.559 20.1039 243.567 15.3348L229.944 30.6569ZM236.418 31.1135C240.699 25.2789 248.068 18.1379 250.884 14.8401L236.418 31.1135ZM236.418 31.1135C242.684 25.6721 246.888 18.696 250.884 14.8401L236.418 31.1135ZM243.735 30.6188C250.131 27.0293 253.621 19.4317 258.214 14.3454L243.735 30.6188ZM243.735 30.6188C249.405 24.2896 254.594 18.4043 258.214 14.3454L243.735 30.6188ZM250.209 31.0754C254.27 28.8811 255.087 24.2896 262.975 16.7046L250.209 31.0754ZM250.209 31.0754C252.505 27.6762 255.606 25.0126 262.975 16.7046L250.209 31.0754ZM258.382 29.6168C258.992 28.1962 260.679 27.3464 261.782 25.7863L258.382 29.6168Z" stroke="#868E96" stroke-width="0.5" stroke-linecap="round"/>
<path id="Vector_22" d="M133.654 16.6793C132.253 16.2607 132.617 11.9862 137.741 12.6838M137.741 12.6838C170.655 10.2105 203.465 14.4089 257.228 12.6838H137.741ZM137.741 12.6838C166.867 13.7112 198.717 14.1171 257.228 12.6838H137.741ZM257.228 12.6838C259.446 14.6498 262.21 14.523 261.315 16.6793L257.228 12.6838ZM257.228 12.6838C257.487 12.7473 260.354 15.284 261.315 16.6793L257.228 12.6838ZM261.315 16.6793C260.575 18.3282 261.717 20.7254 261.315 24.6828V16.6793ZM261.315 16.6793C261.431 19.8629 261.431 22.6534 261.315 24.6828V16.6793ZM261.315 24.6828C263.196 28.4245 257.902 27.6001 257.228 28.6782L261.315 24.6828ZM261.315 24.6828C262.145 25.2282 260.744 30.3525 257.228 28.6782L261.315 24.6828ZM257.228 28.6782C231.423 28.2089 200.897 28.0059 137.741 28.6782H257.228ZM257.228 28.6782C230.217 27.8411 200.442 28.082 137.741 28.6782H257.228ZM137.741 28.6782C136.781 30.8598 133.187 26.2936 133.654 24.6828L137.741 28.6782ZM137.741 28.6782C134.952 31.0374 132.422 25.2916 133.654 24.6828L137.741 28.6782ZM133.654 24.6828C134.173 22.869 133.784 20.2942 133.654 16.6793V24.6828ZM133.654 24.6828C133.888 22.5519 133.732 20.18 133.654 16.6793V24.6828ZM133.654 16.6793C132.214 11.6438 133.693 15.2206 137.741 12.6838L133.654 16.6793Z" stroke="black" stroke-linecap="round"/>
</g>
<g id="fuse-fire">
<g id="Group_39">
<g id="Group_40">
<path id="Vector_23" d="M25.5003 173.719C23.0743 173.592 15.2123 174.81 12.9679 175.013M27.4464 174.594C25.1371 174.975 16.1334 176.687 13.7203 177.131L27.4464 174.594Z" stroke="#E67700" stroke-linecap="round"/>
</g>
</g>
<g id="Group_41">
<g id="Group_42">
<path id="Vector_24" d="M27.3225 176.045C26.2068 178.189 20.8357 185.609 19.3308 187.524M28.8404 176.705C27.115 178.506 18.0853 183.972 16.3988 185.469L28.8404 176.705Z" stroke="#E67700" stroke-linecap="round"/>
</g>
</g>
<g id="Group_43">
<g id="Group_44">
<path id="Vector_25" d="M30.4282 180.269C29.8444 182.704 28.1448 189.972 27.6907 191.849M32.3612 177.377C31.1936 179.533 25.9004 188.095 24.5641 190.239L32.3612 177.377Z" stroke="#E67700" stroke-linecap="round"/>
</g>
</g>
<g id="Group_45">
<g id="Group_46">
<path id="Vector_26" d="M32.7357 180.439C32.9173 182.063 33.7347 186.997 34.7336 188.316M34.5779 177.827C34.9801 179.881 36.1477 188.595 36.3294 190.789L34.5779 177.827Z" stroke="#E67700" stroke-linecap="round"/>
</g>
</g>
<g id="Group_47">
<g id="Group_48">
<path id="Vector_27" d="M31.0458 170.073C30.4361 168.792 28.1008 160.826 27.1018 159.748M32.8621 170.656C32.2913 169.743 29.0609 163.744 27.997 162.298L32.8621 170.656Z" stroke="#E67700" stroke-linecap="round"/>
</g>
</g>
<g id="Group_49">
<g id="Group_50">
<path id="Vector_28" d="M28.8436 172.227C28.2209 171.517 23.8618 170.883 22.9796 170.413M26.4565 173.584C25.9116 173.343 24.1083 172.861 23.6801 172.633L26.4565 173.584Z" stroke="#C92A2A" stroke-linecap="round"/>
</g>
</g>
<g id="Group_51">
<g id="Group_52">
<path id="Vector_29" d="M28.7139 176.134C27.8965 176.197 22.0065 178.569 21.0076 179M26.1451 177.111C25.4445 177.111 22.4866 177.542 21.9417 177.618L26.1451 177.111Z" stroke="#C92A2A" stroke-linecap="round"/>
</g>
</g>
<g id="Group_53">
<g id="Group_54">
<path id="Vector_30" d="M32.0351 177.922C31.0491 178.392 30.7378 180.015 30.0112 180.637M33.8255 179.28C32.4892 180.053 28.0003 182.527 27.1181 182.742L33.8255 179.28Z" stroke="#C92A2A" stroke-linecap="round"/>
</g>
</g>
</g>
<g id="fuse-body">
<g id="Group_55">
<path id="Vector_31" d="M99.7832 136.966C88.6908 142.167 41.8302 163.412 32.3724 170.071C22.9147 176.743 33.086 179.229 43.0237 176.933C52.9745 174.65 83.657 159.632 92.025 156.334M97.6685 137.791C86.7836 142.928 42.6345 162.461 33.6309 168.714C24.6402 174.967 33.3325 176.958 43.6854 175.309C54.0253 173.673 87.1858 161.89 95.7095 158.82L97.6685 137.791Z" stroke="black" stroke-linecap="round"/>
</g>
</g>
</g>
<g id="wheel">
<g id="Group 1">
<g id="Group_56">
<path id="Vector_32" d="M232.014 177.117C243.482 181.594 253.978 191.551 261.697 201.406C269.43 211.249 276.059 223.438 278.381 236.211C280.704 248.996 279.99 265.79 275.631 278.08C271.272 290.384 262.242 301.279 252.201 310.006C242.159 318.745 228.135 326.685 215.395 330.49C202.667 334.282 188.176 335.563 175.799 332.798C163.422 330.033 150.799 322.956 141.121 313.899C131.442 304.843 122.53 290.447 117.703 278.473C112.89 266.487 110.789 254.653 112.164 242.007C113.552 229.362 118.196 213.431 125.981 202.599C133.765 191.767 146.933 182.698 158.895 176.99C170.869 171.295 185.516 168.885 197.802 168.403C210.075 167.921 226.798 172.652 232.546 174.111C238.293 175.582 233.376 175.43 232.273 177.18M235.179 177.675C246.778 182.698 259.064 194.354 266.523 205.009C273.996 215.663 279.069 228.892 279.951 241.602C280.846 254.311 276.915 268.961 271.895 281.239C266.861 293.517 259.907 306.797 249.801 315.295C239.694 323.78 224.333 329.868 211.269 332.202C198.192 334.523 183.674 332.811 171.388 329.234C159.102 325.657 146.92 319.734 137.553 310.729C128.199 301.723 119.169 287.936 115.226 275.188C111.295 262.441 111.359 247.106 113.941 234.245C116.523 221.371 122.53 207.837 130.742 197.982C138.941 188.126 151.201 180.059 163.189 175.113C175.189 170.166 190.07 167.705 202.68 168.276C215.304 168.834 232.948 176.178 238.877 178.525C244.806 180.884 239.175 181.087 238.267 182.368L235.179 177.675Z" stroke="black" stroke-width="4" stroke-linecap="round"/>
</g>
<g id="Group_57">
<g id="Group_58">
<path id="Vector_33" d="M203.849 242.658C209.973 232.371 233.481 191.072 239.215 180.633M201.384 243.977C207.702 233.969 233.883 192.899 240.227 182.625L201.384 243.977Z" stroke="black" stroke-linecap="round"/>
</g>
</g>
<g id="Group_59">
<path id="Vector_34" d="M194.039 241.932C196.698 241.298 200.733 243.137 203.185 244.519C205.637 245.889 207.869 247.665 208.751 250.189C209.646 252.7 209.685 257.102 208.504 259.664C207.311 262.213 204.016 264.382 201.641 265.536C199.267 266.703 196.984 267.3 194.246 266.64C191.522 265.98 187.15 263.685 185.217 261.604C183.297 259.524 182.389 256.594 182.687 254.146C182.972 251.711 185.035 248.959 186.968 246.942C188.901 244.938 192.586 242.591 194.272 242.097C195.946 241.602 196.815 243.72 197.023 243.949L194.039 241.932ZM197.944 241.374C200.759 241.653 203.017 244.164 205.028 246.117C207.038 248.083 209.815 250.608 209.983 253.17C210.152 255.719 207.973 259.03 206.039 261.49C204.093 263.938 201.434 267.287 198.346 267.896C195.271 268.504 190.043 266.741 187.565 265.143C185.087 263.558 184.153 260.92 183.478 258.345C182.804 255.77 182.324 251.914 183.491 249.669C184.672 247.424 188.253 245.8 190.536 244.862C192.832 243.91 195.881 244.113 197.243 244.012C198.593 243.898 198.541 244.202 198.683 244.228" fill="#FD7E14"/>
<path id="Vector_35" d="M191.443 242.896C193.882 242.033 196.438 242.972 199.305 243.86C202.186 244.748 207.375 246.092 208.685 248.223C209.983 250.354 207.816 254.083 207.128 256.632C206.428 259.182 206.687 261.845 204.534 263.545C202.367 265.245 197.178 267.097 194.168 266.83C191.158 266.564 188.239 263.431 186.487 261.947C184.736 260.463 183.841 259.867 183.646 257.913C183.452 255.973 184.01 252.84 185.32 250.265C186.617 247.678 190.042 243.454 191.456 242.439C192.871 241.437 193.376 243.987 193.805 244.202M200.979 244.139C203.47 244.9 205.468 246.181 206.635 248.261C207.816 250.341 208.465 253.918 208.037 256.62C207.621 259.321 206.13 262.683 204.132 264.471C202.147 266.272 199.046 267.274 196.114 267.388C193.195 267.502 188.771 266.868 186.604 265.156C184.451 263.431 183.646 259.803 183.166 257.102C182.686 254.4 182.362 251.229 183.724 248.946C185.099 246.65 188.408 244.139 191.392 243.365C194.388 242.591 199.682 243.606 201.667 244.278C203.652 244.938 203.353 247.183 203.314 247.335L200.979 244.139Z" stroke="black" stroke-linecap="round"/>
</g>
<g id="Group_60">
<g id="Group_61">
<path id="Vector_36" d="M190.981 244.44C189.009 232.669 179.162 186.107 176.84 173.765M188.854 245.556C186.959 233.493 179.655 184.115 177.813 172.04L188.854 245.556Z" stroke="black" stroke-linecap="round"/>
</g>
</g>
<g id="Group_62">
<g id="Group_63">
<path id="Vector_37" d="M184.871 254.17C174.738 247.207 131.9 217.006 121.482 209.777M182.562 254.83C172.468 247.625 132.159 219.34 122.157 211.793L182.562 254.83Z" stroke="black" stroke-linecap="round"/>
</g>
</g>
<g id="Group_64">
<g id="Group_65">
<path id="Vector_38" d="M187.449 260.791C175.02 262.249 125.76 270.367 114.161 271.61M188.578 262.211C176.499 263.416 128.017 268.261 115.731 269.682L188.578 262.211Z" stroke="black" stroke-linecap="round"/>
</g>
</g>
<g id="Group_66">
<g id="Group_67">
<path id="Vector_39" d="M190.586 262.189C182.166 270.078 148.085 301.965 140.249 310.134M188.342 263.66C180.207 271.942 149.486 304.362 141.494 312.67L188.342 263.66Z" stroke="black" stroke-linecap="round"/>
</g>
</g>
<g id="Group_68">
<g id="Group_69">
<path id="Vector_40" d="M194.973 269.406C195.155 280.378 198.658 323.439 199.41 334.322M196.621 266.679C196.452 277.486 196.556 321.778 196.53 332.889L196.621 266.679Z" stroke="black" stroke-linecap="round"/>
</g>
</g>
<g id="Group_70">
<g id="Group_71">
<path id="Vector_41" d="M203.848 265.278C211.866 273.637 244.559 307.579 253.109 315.443M205.158 265.951C213.397 274.068 246.272 305.423 254.095 313.566L205.158 265.951Z" stroke="black" stroke-linecap="round"/>
</g>
</g>
<g id="Group_72">
<g id="Group_73">
<path id="Vector_42" d="M208.039 250.861C218.353 246.371 261.101 228.778 271.869 223.882M209.258 252.256C219.754 247.423 262.269 226.799 272.31 222.03L209.258 252.256Z" stroke="black" stroke-linecap="round"/>
</g>
</g>
<g id="Group_74">
<g id="Group_75">
<path id="Vector_43" d="M211.024 255.531C221.467 258.398 261.685 273.517 271.779 277.056M208.455 257.193C219.106 259.996 262.243 272.667 272.947 275.762L208.455 257.193Z" stroke="black" stroke-linecap="round"/>
</g>
</g>
</g>
</g>
</g>
</svg>
